<svg width="42" height="42" viewBox="0 0 42 42" fill="none"
    xmlns="http://www.w3.org/2000/svg">
    <circle opacity="0.5" cx="21.0799" cy="20.92" r="19.92" stroke="#122038"/>
    <path fill-rule="evenodd" clip-rule="evenodd" d="M21.0782 14.2798C19.2744 14.2798 19.0497 14.2875 18.3403 14.3207C15.9278 14.4314 14.5887 15.7694 14.4781 18.1819C14.446 18.8913 14.4382 19.117 14.4382 20.9198C14.4382 22.7237 14.446 22.9494 14.4781 23.6577C14.5887 26.0691 15.9278 27.4093 18.3403 27.5199C19.0497 27.552 19.2744 27.5598 21.0782 27.5598C22.8821 27.5598 23.1079 27.552 23.8172 27.5199C26.2253 27.4093 27.5699 26.0713 27.6784 23.6577C27.7105 22.9494 27.7182 22.7237 27.7182 20.9198C27.7182 19.117 27.7105 18.8913 27.6784 18.1819C27.5699 15.7727 26.2298 14.4303 23.8172 14.3207C23.1079 14.2875 22.8821 14.2798 21.0782 14.2798ZM21.0751 15.4778C22.8479 15.4778 23.0582 15.4844 23.7587 15.5165C25.5593 15.5984 26.3981 16.4516 26.4811 18.2378C26.5121 18.9383 26.5187 19.1475 26.5187 20.9204C26.5187 22.6932 26.5121 22.9035 26.4811 23.6029C26.3981 25.388 25.5604 26.2434 23.7587 26.3253C23.0582 26.3563 22.849 26.3641 21.0751 26.3641C19.3022 26.3641 19.0919 26.3574 18.3925 26.3253C16.5886 26.2423 15.7531 25.3858 15.6701 23.6029C15.6391 22.9035 15.6314 22.6932 15.6314 20.9204C15.6314 19.1475 15.6391 18.9372 15.6701 18.2378C15.752 16.4505 16.5908 15.5973 18.3925 15.5154C19.0919 15.4833 19.3022 15.4778 21.0751 15.4778ZM17.6675 20.9203C17.6675 19.0367 19.1947 17.5106 21.0771 17.5106C22.9595 17.5106 24.4867 19.0378 24.4867 20.9203C24.4867 22.8038 22.9595 24.3299 21.0771 24.3299C19.1947 24.3299 17.6675 22.8038 17.6675 20.9203ZM21.0804 23.1337C19.8575 23.1337 18.8671 22.1432 18.8671 20.9203C18.8671 19.6986 19.8575 18.707 21.0804 18.707C22.3022 18.707 23.2948 19.6975 23.2948 20.9203C23.2948 22.1432 22.3022 23.1337 21.0804 23.1337ZM23.8276 17.3753C23.8276 16.9348 24.1851 16.5785 24.6244 16.5785C25.066 16.5785 25.4223 16.9348 25.4223 17.3753C25.4223 17.8157 25.0649 18.1721 24.6244 18.1721C24.184 18.1721 23.8276 17.8146 23.8276 17.3753Z" fill="#122038"/>
</svg>
